Ostrich_Walking_GRF_Data																		
version=1																		
nRows=101																		
nColumns=19																		
inDegrees=yes																		
endheader																		
time	ground_force_vx	ground_force_vy	ground_force_vz	ground_force_px	ground_force_py	ground_force_pz	1_ground_force_vx	1_ground_force_vy	1_ground_force_vz	1_ground_force_px	1_ground_force_py	1_ground_force_pz	ground_torque_x	ground_torque_y	ground_torque_z	1_ground_torque_x	1_ground_torque_y	1_ground_torque_z
0.64	-187.1709	822.8657	10.4405	0.13201	-0.01985	0.0259764	1.5733	13.0483	2.5124	0.20831	0.039816	0.083082	0	-5.786648167	0	0	0.345269473	0
0.645	-183.8367	826.011	11.7506	0.13058	-0.020013	0.0268388	2.2073	5.7643	2.0984	0.15606	-0.031031	-0.12726	0	-6.010954776	0	0	0.78343555	0
0.65	-180.1927	827.7409	13.0113	0.13378	-0.020035	0.026277	2.5774	0.9971	1.7214	0.1681	-0.033989	-0.12857	0	-6.23473479	0	0	0	0
0.655	-176.2535	828.0942	14.2058	0.1323	-0.020607	0.025629	2.3065	-1.9527	1.5491	0.18242	-0.037846	-0.12872	0	-6.456996784	0	0	0	0
0.66	-172.0781	827.1454	15.318	0.1336	-0.020446	0.0261679	0	0	0	0	0	0	0	-6.670751654	0	0	0	0
0.665	-167.6993	824.9744	16.3318	0.13282	-0.021056	0.0262456	0	0	0	0	0	0	0	-6.869867981	0	0	0	0
0.67	-163.1567	821.6449	17.232	0.13557	-0.020702	0.0266036	0	0	0	0	0	0	0	-7.050854243	0	0	0	0
0.675	-158.473	817.2154	17.9918	0.13512	-0.021182	0.026518	0	0	0	0	0	0	0	-7.212894035	0	0	0	0
0.68	-153.6891	811.8072	18.579	0.13519	-0.021727	0.0259227	0	0	0	0	0	0	0	-7.353126817	0	0	0	0
0.685	-148.839	805.5672	18.9647	0.13506	-0.021862	0.0265709	0	0	0	0	0	0	0	-7.462113193	0	0	0	0
0.69	-143.9684	798.6182	19.1241	0.1373	-0.022021	0.026239	0	0	0	0	0	0	0	-7.527048044	0	0	0	0
0.695	-139.1183	791.0627	19.0374	0.13721	-0.022496	0.0259483	0	0	0	0	0	0	0	-7.538425231	0	0	0	0
0.7	-134.3375	783.0024	18.6944	0.13811	-0.022194	0.0271743	0	0	0	0	0	0	0	-7.488502677	0	0	0	0
0.705	-129.7171	774.551	18.1263	0.13719	-0.023044	0.0265527	0	0	0	0	0	0	0	-7.372067315	0	0	0	0
0.71	-125.3512	765.8292	17.4227	0.13723	-0.023565	0.0261239	0	0	0	0	0	0	0	-7.196683225	0	0	0	0
0.715	-121.2931	757.0032	16.7842	0.13828	-0.023955	0.0257836	0	0	0	0	0	0	0	-6.994725956	0	0	0	0
0.72	-117.3807	748.2364	16.3875	0.13962	-0.023997	0.0260467	0	0	0	0	0	0	0	-6.809622644	0	0	0	0
0.725	-113.2799	739.5072	16.2334	0.13793	-0.02479	0.0255372	0	0	0	0	0	0	0	-6.66958068	0	0	0	0
0.73	-109.0094	730.7977	16.177	0.13732	-0.025414	0.0255245	0	0	0	0	0	0	0	-6.570673593	0	0	0	0
0.735	-104.8144	722.149	16.0797	0.13893	-0.025823	0.0246038	0	0	0	0	0	0	0	-6.493421975	0	0	0	0
0.74	-100.7713	713.5272	15.8846	0.13786	-0.026167	0.0255415	0	0	0	0	0	0	0	-6.415226922	0	0	0	0
0.745	-96.8603	704.8962	15.571	0.13889	-0.026609	0.024663	0	0	0	0	0	0	0	-6.317019426	0	0	0	0
0.75	-93.0648	696.2477	15.1242	0.13789	-0.027154	0.0247144	0	0	0	0	0	0	0	-6.185243322	0	0	0	0
0.755	-89.4041	687.5972	14.5039	0.13935	-0.027268	0.0246421	0	0	0	0	0	0	0	-6.015393148	0	0	0	0
0.76	-85.8896	678.9857	13.6566	0.13869	-0.027777	0.0244981	0	0	0	0	0	0	0	-5.810515266	0	0	0	0
0.765	-82.4803	670.4322	12.5952	0.13935	-0.027765	0.0244951	0	0	0	0	0	0	0	-5.574291013	0	0	0	0
0.77	-79.1446	661.9472	11.3783	0.14047	-0.028052	0.0235158	0	0	0	0	0	0	0	-5.312070179	0	0	0	0
0.775	-75.8824	653.5827	10.0404	0.13922	-0.02843	0.0236022	0	0	0	0	0	0	0	-5.030364253	0	0	0	0
0.78	-72.6977	645.4015	8.5791	0.14056	-0.028676	0.0235858	0	0	0	0	0	0	0	-4.734717089	0	0	0	0
0.785	-69.5927	637.4515	6.9853	0.14077	-0.02891	0.0236114	0	0	0	0	0	0	0	-4.431314114	0	0	0	0
0.79	-66.5723	629.7647	5.2653	0.13987	-0.02928	0.023627	0	0	0	0	0	0	0	-4.124738314	0	0	0	0
0.795	-63.6395	622.3758	3.4379	0.14077	-0.029347	0.0234034	0	0	0	0	0	0	0	-3.817032928	0	0	0	0
0.8	-60.7939	615.3329	1.5252	0.14027	-0.029756	0.0234305	0	0	0	0	0	0	0	-3.509786636	0	0	0	0
0.805	-58.0343	608.6668	-0.452	0.14116	-0.029814	0.0232212	0	0	0	0	0	0	0	-3.209574662	0	0	0	0
0.81	-55.3462	602.398	-2.4622	0.14144	-0.029746	0.0238609	0	0	0	0	0	0	0	-2.917353355	0	0	0	0
0.815	-52.7163	596.5458	-4.4584	0.14233	-0.030026	0.0232973	0	0	0	0	0	0	0	-2.639702338	0	0	0	0
0.82	-50.1338	591.1047	-6.3903	0.14128	-0.030305	0.0233096	0	0	0	0	0	0	0	-2.378062358	0	0	0	0
0.825	-47.5894	586.0544	-8.2092	0.13998	-0.030263	0.0239984	0	0	0	0	0	0	0	-2.134448396	0	0	0	0
0.83	-45.0749	581.3617	-9.879	0.14104	-0.030365	0.0238875	0	0	0	0	0	0	0	-1.908773334	0	0	0	0
0.835	-42.5883	577.018	-11.3871	0.13998	-0.030752	0.0238646	0	0	0	0	0	0	0	-1.701486702	0	0	0	0
0.84	-40.1348	573.0349	-12.7403	0.14028	-0.030898	0.0233193	0	0	0	0	0	0	0	-1.514530773	0	0	0	0
0.845	-37.7196	569.4198	-13.9634	0.14058	-0.030922	0.0231211	0	0	0	0	0	0	0	-1.344047449	0	0	0	0
0.85	-35.3513	566.1585	-15.0864	0.14149	-0.030353	0.0244937	0	0	0	0	0	0	0	-1.182920433	0	0	0	0
0.855	-33.0354	563.2447	-16.1124	0.14005	-0.030473	0.0244969	0	0	0	0	0	0	0	-1.027114037	0	0	0	0
0.86	-30.7692	560.6797	-17.0054	0.1409	-0.030494	0.0244299	0	0	0	0	0	0	0	-0.87818599	0	0	0	0
0.865	-28.5433	558.4589	-17.7103	0.13963	-0.030394	0.0252868	0	0	0	0	0	0	0	-0.739079758	0	0	0	0
0.87	-26.3503	556.5743	-18.211	0.14014	-0.030528	0.0247176	0	0	0	0	0	0	0	-0.614903603	0	0	0	0
0.875	-24.184	555.045	-18.5563	0.13875	-0.030703	0.0248651	0	0	0	0	0	0	0	-0.502506813	0	0	0	0
0.88	-22.0413	553.9382	-18.82	0.1395	-0.030674	0.0247177	0	0	0	0	0	0	0	-0.399485756	0	0	0	0
0.885	-19.919	553.3073	-19.0491	0.13817	-0.030754	0.0246752	0	0	0	0	0	0	0	-0.304063567	0	0	0	0
0.89	-17.8072	553.1573	-19.2492	0.14044	-0.030566	0.0244428	0	0	0	0	0	0	0	-0.212826453	0	0	0	0
0.895	-15.695	553.471	-19.41	0.1391	-0.030779	0.0245549	0	0	0	0	0	0	0	-0.122347499	0	0	0	0
0.9	-13.5753	554.2563	-19.533	0.13949	-0.030744	0.0244417	0	0	0	0	0	0	0	-0.0278853	0	0	0	0
0.905	-11.4533	555.5437	-19.631	0.13782	-0.030905	0.0246011	0	0	0	0	0	0	0	0.072875853	0	0	0	0
0.91	-9.3483	557.333	-19.706	0.13874	-0.030909	0.0244663	0	0	0	0	0	0	0	0.181603919	0	0	0	0
0.915	-7.2643	559.6033	-19.7593	0.13676	-0.031115	0.0248134	0	0	0	0	0	0	0	0.296506603	0	0	0	0
0.92	-5.1851	562.3205	-19.806	0.13715	-0.031104	0.0246993	0	0	0	0	0	0	0	0.414183536	0	0	0	0
0.925	-3.0822	565.4532	-19.8704	0.13552	-0.031308	0.024785	0	0	0	0	0	0	0	0.532573255	0	0	0	0
0.93	-0.9221	568.982	-19.965	0.13635	-0.031323	0.0247322	0	0	0	0	0	0	0	0.648345484	0	0	0	0
0.935	1.3157	572.9049	-20.0873	0.13451	-0.031469	0.0248016	0	0	0	0	0	0	0	0.762884286	0	0	0	0
0.94	3.6382	577.2332	-20.2254	0.13636	-0.031344	0.0245235	0	0	0	0	0	0	0	0.875311408	0	0	0	0
0.945	6.0469	581.9543	-20.362	0.13463	-0.031567	0.0246544	0	0	0	0	0	0	0	0.98322454	0	0	0	0
0.95	8.5449	587.0385	-20.4974	0.13501	-0.031509	0.0245159	0	0	0	0	0	0	0	1.085200661	0	0	0	0
0.955	11.141	592.4693	-20.6532	0.13533	-0.03134	0.0248434	0	0	0	0	0	0	0	1.182462186	0	0	0	0
0.96	13.8327	598.2388	-20.8471	0.13532	-0.031419	0.0249643	0	0	0	0	0	0	0	1.278209	0	0	0	0
0.965	16.5988	604.3133	-21.085	0.13569	-0.031388	0.0248357	0	0	0	0	0	0	0	1.376036227	0	0	0	0
0.97	19.4054	610.6359	-21.3402	0.13577	-0.031393	0.0247454	0	0	0	0	0	0	0	1.478447959	0	0	0	0
0.975	22.2135	617.1482	-21.5731	0.13557	-0.031367	0.0245663	0	0	0	0	0	0	0	1.583675305	0	0	0	0
0.98	24.9968	623.793	-21.763	0.13616	-0.031397	0.0244907	0	0	0	0	0	0	0	1.688940856	0	0	0	0
0.985	27.7585	630.528	-21.9223	0.13595	-0.031428	0.0245782	0	0	0	0	0	0	0	1.793096634	0	0	0	0
0.99	30.5122	637.308	-22.0914	0.13629	-0.031799	0.0237871	0	0	0	0	0	0	0	1.895102562	0	0	0	0
0.995	33.2783	644.0837	-22.2933	0.13785	-0.031523	0.0238924	0	0	0	0	0	0	0	1.99325895	0	0	0	0
1	36.0734	650.8124	-22.515	0.13807	-0.031269	0.024557	0	0	0	0	0	0	0	2.085335812	0	0	0	0
1.005	38.9037	657.4627	-22.7282	0.13601	-0.031499	0.0248995	0	0	0	0	0	0	0	2.171228726	0	0	0	0
1.01	41.773	664.0163	-22.9251	0.13643	-0.031465	0.0247933	0	0	0	0	0	0	0	2.248389753	0	0	0	0
1.015	44.6981	670.4945	-23.1192	0.1362	-0.031426	0.0246235	0	0	0	0	0	0	0	2.314085174	0	0	0	0
1.02	47.6919	676.9229	-23.3331	0.13629	-0.031308	0.0251476	0	0	0	0	0	0	0	2.36922642	0	0	0	0
1.025	50.7577	683.3125	-23.582	0.13703	-0.03123	0.0250584	0	0	0	0	0	0	0	2.416012534	0	0	0	0
1.03	53.8977	689.6647	-23.8733	0.13882	-0.030834	0.0247029	0	0	0	0	0	0	0	2.45681932	0	0	0	0
1.035	57.1116	695.9878	-24.2113	0.13726	-0.03049	0.0255238	0	0	0	0	0	0	0	2.492855292	0	0	0	0
1.04	60.3934	702.2727	-24.6022	0.13773	-0.030343	0.0259253	0	0	0	0	0	0	0	2.526125037	0	0	0	0
1.045	63.7508	708.477	-25.0433	0.13797	-0.030625	0.0253155	0	0	0	0	0	0	0	2.55677174	0	0	0	0
1.05	67.1788	714.5332	-25.5083	0.13608	-0.030727	0.02547	0	0	0	0	0	0	0	2.583577118	0	0	0	0
1.055	70.6486	720.3852	-25.9703	0.1381	-0.030541	0.0256997	0	0	0	0	0	0	0	2.608110766	0	0	0	0
1.06	74.1237	725.9438	-26.4222	0.13624	-0.030646	0.0257567	0	0	0	0	0	0	0	2.630845795	0	0	0	0
1.065	77.6159	731.0812	-26.8582	0.13682	-0.030761	0.0249035	0	0	0	0	0	0	0	2.648119653	0	0	0	0
1.07	81.1198	735.6615	-27.2842	0.13681	-0.030679	0.0253209	0	0	0	0	0	0	0	2.659049739	0	0	0	0
1.075	84.5834	739.6159	-27.7082	0.13505	-0.03074	0.0254319	0	0	0	0	0	0	0	2.664248287	0	0	0	0
1.08	87.9464	742.8757	-28.1324	0.13609	-0.030814	0.0250962	0	0	0	0	0	0	0	2.663291548	0	0	0	0
1.085	91.2011	745.3067	-28.5481	0.1356	-0.030809	0.0251936	0	0	0	0	0	0	0	2.655811257	0	0	0	0
1.09	94.3707	746.771	-28.9354	0.13477	-0.030704	0.0258585	0	0	0	0	0	0	0	2.638434596	0	0	0	0
1.095	97.4584	747.1765	-29.27	0.13569	-0.030831	0.0250684	0	0	0	0	0	0	0	2.610087305	0	0	0	0
1.1	100.4576	746.4985	-29.5284	0.13593	-0.030649	0.0249874	0	0	0	0	0	0	0	2.57034296	0	0	0	0
1.105	103.3648	744.6949	-29.6902	0.13485	-0.030726	0.0248758	0	0	0	0	0	0	0	2.518473643	0	0	0	0
1.11	106.1738	741.7338	-29.752	0.13499	-0.030562	0.0248304	0.2184	-2.9629	-1.0758	0.19744	-0.013071	-0.070519	0	2.452732801	0	0	0.095075532	0
1.115	108.8263	737.5982	-29.7283	0.1374	-0.030245	0.0251983	0.0038	-1.0317	-0.5945	0.18822	-0.010826	-0.073613	0	2.371964819	0	0	0.185089074	0
1.12	111.2678	732.2948	-29.6551	0.13695	-0.030254	0.0246453	-0.4851	3.1453	0.4821	0.18128	-0.0075244	-0.07673	0	2.273176195	0	0	-0.00658237	0
1.125	113.4731	725.7945	-29.5632	0.13746	-0.030016	0.0250934	-1.3283	10.1552	2.3272	0.18882	-0.055459	-0.0068242	0	2.15885921	0	0	-0.016312189	0
1.13	115.485	718.0267	-29.4971	0.13774	-0.029915	0.0244398	-2.5102	19.7871	4.9222	0.17409	-0.053579	-0.011804	0	2.039562888	0	0	-0.089572773	0
1.135	117.3098	708.9345	-29.473	0.13748	-0.029594	0.0250599	-3.9132	31.2104	7.9702	0.16273	-0.051829	-0.015247	0	1.93028123	0	0	-0.208107227	0
1.14	118.8797	698.5139	-29.4424	0.1385	-0.029428	0.0243246	-5.4751	44.1369	11.1271	0.15406	-0.050629	-0.015369	0	1.833647752	0	0	-0.34583225	0
